<svg xmlns="http://www.w3.org/2000/svg" width="512" height="512" viewBox="0 0 512 512">
  <defs>
    <linearGradient id="base" x1="0" y1="0" x2="1" y2="1">
      <stop offset="0" stop-color="#eee8d9"/>
      <stop offset=".48" stop-color="#ddd5c3"/>
      <stop offset="1" stop-color="#f6f0e2"/>
    </linearGradient>
    <radialGradient id="warm" cx=".68" cy=".34" r=".72">
      <stop offset="0" stop-color="#c9b88f" stop-opacity=".34"/>
      <stop offset=".62" stop-color="#d6cab2" stop-opacity=".17"/>
      <stop offset="1" stop-color="#fffaf0" stop-opacity="0"/>
    </radialGradient>
  </defs>
  <rect width="512" height="512" fill="url(#base)"/>
  <rect width="512" height="512" fill="url(#warm)"/>
  <path d="M-42 78 C80 128 148 84 250 126 S402 212 552 152" fill="none" stroke="#b7a27c" stroke-width="13" opacity=".32"/>
  <path d="M-28 206 C96 272 212 220 322 270 S444 332 552 284" fill="none" stroke="#8e8068" stroke-width="4" opacity=".18"/>
  <path d="M-56 340 C110 292 218 372 352 330 S462 298 556 364" fill="none" stroke="#fff9ec" stroke-width="25" opacity=".35"/>
  <path d="M30 498 C158 406 248 456 348 400 S470 334 548 350" fill="none" stroke="#c0ae86" stroke-width="7" opacity=".22"/>
  <g fill="#a89470" opacity=".24">
    <circle cx="82" cy="286" r="3"/>
    <circle cx="184" cy="92" r="2.4"/>
    <circle cx="296" cy="182" r="2"/>
    <circle cx="426" cy="386" r="2.8"/>
  </g>
</svg>
